<svg xmlns="http://www.w3.org/2000/svg" viewBox="0 0 1400 420" width="1400" height="420" role="img" aria-label="Adapter injection into the frozen transformer, the compiled rule head, and the rule-music cross-attention"><style>
.pnl   { fill: #FFFFFF; stroke: #D7DCE4; stroke-width: 1; }
.bx    { fill: #F2F4F8; stroke: #D7DCE4; stroke-width: 1; }
.bxf   { fill: #EDEFF3; stroke: #C4CBD6; stroke-width: 1; }
.bxa   { fill: #E7EDFC; stroke: #2B5FD9; stroke-width: 1.2; }
.bxx   { fill: #FBF1E0; stroke: #A96A12; stroke-width: 1.2; }
.bxd   { fill: none; stroke: #616A78; stroke-width: 1; stroke-dasharray: 4 4; }
.slot  { fill: #FFFFFF; stroke: #2B5FD9; stroke-width: .8; }
.tick  { fill: #EDEFF3; stroke: #C4CBD6; stroke-width: .7; }
.ttl   { font: 600 12px 'IBM Plex Sans','Helvetica Neue',sans-serif; fill: #1B1F27;
          letter-spacing: .09em; }
.sub   { font: 400 10.5px 'IBM Plex Sans','Helvetica Neue',sans-serif; fill: #616A78; }
.lbl   { font: 500 11px 'IBM Plex Sans','Helvetica Neue',sans-serif; fill: #1B1F27; }
.lblf  { font: 500 11px 'IBM Plex Sans','Helvetica Neue',sans-serif; fill: #2B5FD9; }
.lblx  { font: 600 10px 'IBM Plex Sans','Helvetica Neue',sans-serif; fill: #A96A12; }
.mono  { font: 400 9.5px 'IBM Plex Mono',ui-monospace,monospace; fill: #616A78; }
.monof { font: 400 9.5px 'IBM Plex Mono',ui-monospace,monospace; fill: #2B5FD9; }
.tag   { font: 400 9px 'IBM Plex Sans','Helvetica Neue',sans-serif; fill: #616A78;
          letter-spacing: .06em; }
.arw   { stroke: #1B1F27; stroke-width: 1.4; fill: none; }
.arwf  { stroke: #2B5FD9; stroke-width: 1.5; fill: none; }
.arwx  { stroke: #A96A12; stroke-width: 1.2; fill: none; stroke-dasharray: 5 4; }
.hair  { stroke: #2B5FD9; stroke-width: .7; fill: none; opacity: .55; }

.pbx    { fill: #FFFFFF; stroke: #1B1F27; stroke-width: 1; }
.pfroz  { fill: #EDEFF3; stroke: #616A78; stroke-width: 1; }
.pacc   { fill: #E7EDFC; stroke: #2B5FD9; stroke-width: 1.2; }
.pempty { fill: none; stroke: #616A78; stroke-width: 1; stroke-dasharray: 3 3; }
.pdash  { fill: none; stroke: #616A78; stroke-width: .9; stroke-dasharray: 4 3; }
.ppanel { font: 700 14px 'IBM Plex Sans',Helvetica,Arial,sans-serif; fill: #1B1F27; }
.phead  { font: 600 12.5px 'IBM Plex Sans',Helvetica,Arial,sans-serif; fill: #1B1F27; }
.plbl   { font: 400 11.5px 'IBM Plex Sans',Helvetica,Arial,sans-serif; fill: #1B1F27; }
.plblb  { font: 600 11.5px 'IBM Plex Sans',Helvetica,Arial,sans-serif; fill: #1B1F27;
           letter-spacing: .04em; }
.pmath  { font: italic 400 11px Georgia,'Times New Roman',serif; fill: #1B1F27; }
.pmathf { font: italic 400 11.5px Georgia,'Times New Roman',serif; fill: #2B5FD9; }
.pcap   { font: 400 9.5px 'IBM Plex Sans',Helvetica,Arial,sans-serif; fill: #616A78; }
.ptag   { font: 400 8.5px 'IBM Plex Sans',Helvetica,Arial,sans-serif; fill: #616A78;
           letter-spacing: .05em; }
.pnum   { font: 400 8px 'IBM Plex Mono',monospace; fill: #616A78; }
.parw   { stroke: #1B1F27; stroke-width: 1.1; fill: none; }
.parwa  { stroke: #2B5FD9; stroke-width: 1.2; fill: none; }
.gcell-off { fill: none;            stroke: #D7DCE4;   stroke-width: .6; }
.gcell-vis { fill: #EDEFF3;   stroke: #D7DCE4;   stroke-width: .6; }
.gcell-hit { fill: #2B5FD9;          stroke: #2B5FD9;   stroke-width: .6; }

.plane   { stroke: #D7DCE4; stroke-width: 1; stroke-dasharray: 2 5; }
.plane-t { font: 600 9.5px 'IBM Plex Sans',Helvetica,sans-serif; fill: #616A78;
            letter-spacing: .07em; }
.pbrk    { fill: none; stroke: #616A78; stroke-width: .9; }
.pdot    { fill: #2B5FD9; stroke: none; }
.pplus   { font: 400 17px 'IBM Plex Sans',Helvetica,sans-serif; fill: #2B5FD9; }
.pplussm { font: 400 12px 'IBM Plex Sans',Helvetica,sans-serif; fill: #2B5FD9; }
</style><rect width="1400" height="420" fill="#FFFFFF"/><marker id="ar-ink" viewBox="0 0 10 10" refX="9" refY="5" markerWidth="6" markerHeight="6" orient="auto-start-reverse"><path d="M 0 0 L 10 5 L 0 10 z" fill="#1B1F27"/></marker><marker id="ar-flow" viewBox="0 0 10 10" refX="9" refY="5" markerWidth="6" markerHeight="6" orient="auto-start-reverse"><path d="M 0 0 L 10 5 L 0 10 z" fill="#2B5FD9"/></marker><marker id="ar-aux" viewBox="0 0 10 10" refX="9" refY="5" markerWidth="6" markerHeight="6" orient="auto-start-reverse"><path d="M 0 0 L 10 5 L 0 10 z" fill="#A96A12"/></marker><text x="8" y="26" class="ppanel">(a)</text><text x="38" y="26" class="phead">Adapter injection into the frozen transformer</text><rect x="130" y="56" width="180" height="32" rx="2" class="pbx"/><text x="220.0" y="70.0" text-anchor="middle" class="plbl">CP tokens</text><text x="220.0" y="84.0" text-anchor="middle" class="pmath">x ∈ ℝ<tspan font-size="68%" baseline-shift="32%">T×S</tspan>,  T = 64</text><line x1="220.0" y1="88" x2="220.0" y2="104" class="parw" marker-end="url(#ar-ink)"/><rect x="130" y="104" width="180" height="30" rx="2" class="pbx"/><text x="220.0" y="123.0" text-anchor="middle" class="plbl">local encoder</text><line x1="220.0" y1="134" x2="220.0" y2="152" class="parw" marker-end="url(#ar-ink)"/><rect x="14" y="152" width="380" height="116" rx="3" class="pdash"/><text x="384" y="166" text-anchor="end" class="pcap">× L = 12</text><rect x="130" y="166" width="180" height="30" rx="2" class="pfroz"/><text x="220.0" y="185.0" text-anchor="middle" class="plbl">self-attention layer</text><text x="304" y="178" text-anchor="end" class="ptag">frozen</text><line x1="220.0" y1="196" x2="220.0" y2="212" class="parw" marker-end="url(#ar-ink)"/><rect x="130" y="212" width="180" height="30" rx="2" class="pacc"/><text x="220.0" y="231.0" text-anchor="middle" class="plbl">cross-attn adapter</text><text x="304" y="224" text-anchor="end" class="ptag">trained</text><rect x="24" y="164" width="86" height="26" rx="2" class="pacc"/><text x="67.0" y="181.0" text-anchor="middle" class="plbl">ar_to_rule</text><rect x="24" y="202" width="86" height="30" rx="2" class="pacc"/><text x="67.0" y="221.0" text-anchor="middle" class="plbl">rule model</text><text x="67" y="244" text-anchor="middle" class="pcap">(b)</text><line x1="128" y1="177" x2="112" y2="177" class="parwa" marker-end="url(#ar-flow)"/><text x="120" y="172" class="pmathf">h</text><line x1="67" y1="190" x2="67" y2="200" class="parwa" marker-end="url(#ar-flow)"/><line x1="112" y1="224" x2="128" y2="224" class="parwa" marker-end="url(#ar-flow)"/><text x="120" y="219" class="pmathf">r</text><line x1="220.0" y1="268" x2="220.0" y2="284" class="parw" marker-end="url(#ar-ink)"/><rect x="130" y="284" width="180" height="30" rx="2" class="pbx"/><text x="220.0" y="303.0" text-anchor="middle" class="plbl">local decoder</text><line x1="220.0" y1="314" x2="220.0" y2="330" class="parw" marker-end="url(#ar-ink)"/><rect x="130" y="330" width="180" height="32" rx="2" class="pbx"/><text x="220.0" y="344.0" text-anchor="middle" class="plbl">note-tuple logits</text><text x="220.0" y="358.0" text-anchor="middle" class="pmath">ŷ ∈ ℝ<tspan font-size="68%" baseline-shift="32%">T×S×|V|</tspan></text><text x="440" y="26" class="ppanel">(b)</text><text x="470" y="26" class="phead">Rule model: one compiled attention head</text><text x="454" y="54" class="pcap">input stream  x</text><rect x="454" y="60" width="181.71428571428572" height="26" rx="2" class="pacc"/><rect x="635.7142857142858" y="60" width="181.71428571428572" height="26" rx="2" class="pempty"/><rect x="817.4285714285716" y="60" width="60.571428571428555" height="26" rx="2" class="pfroz"/><text x="544.8571428571429" y="77" text-anchor="middle" class="plbl">root  (12)</text><text x="726.5714285714287" y="77" text-anchor="middle" class="pcap">tonic  (12)  empty</text><text x="847.7142857142858" y="77" text-anchor="middle" class="pcap">phase (4)</text><rect x="454" y="100" width="424" height="196" rx="3" class="pdash"/><text x="472" y="124" class="pcap">key  k →</text><text x="464" y="194.0" class="pcap" transform="rotate(-90 464 194.0)" text-anchor="middle">query  q →</text><rect x="472.0" y="132.0" width="14.5" height="14.5" class="gcell-hit"/><rect x="487.5" y="132.0" width="14.5" height="14.5" class="gcell-off"/><rect x="503.0" y="132.0" width="14.5" height="14.5" class="gcell-off"/><rect x="518.5" y="132.0" width="14.5" height="14.5" class="gcell-off"/><rect x="534.0" y="132.0" width="14.5" height="14.5" class="gcell-off"/><rect x="549.5" y="132.0" width="14.5" height="14.5" class="gcell-off"/><rect x="565.0" y="132.0" width="14.5" height="14.5" class="gcell-off"/><rect x="580.5" y="132.0" width="14.5" height="14.5" class="gcell-off"/><rect x="472.0" y="147.5" width="14.5" height="14.5" class="gcell-hit"/><rect x="487.5" y="147.5" width="14.5" height="14.5" class="gcell-vis"/><rect x="503.0" y="147.5" width="14.5" height="14.5" class="gcell-off"/><rect x="518.5" y="147.5" width="14.5" height="14.5" class="gcell-off"/><rect x="534.0" y="147.5" width="14.5" height="14.5" class="gcell-off"/><rect x="549.5" y="147.5" width="14.5" height="14.5" class="gcell-off"/><rect x="565.0" y="147.5" width="14.5" height="14.5" class="gcell-off"/><rect x="580.5" y="147.5" width="14.5" height="14.5" class="gcell-off"/><rect x="472.0" y="163.0" width="14.5" height="14.5" class="gcell-hit"/><rect x="487.5" y="163.0" width="14.5" height="14.5" class="gcell-vis"/><rect x="503.0" y="163.0" width="14.5" height="14.5" class="gcell-vis"/><rect x="518.5" y="163.0" width="14.5" height="14.5" class="gcell-off"/><rect x="534.0" y="163.0" width="14.5" height="14.5" class="gcell-off"/><rect x="549.5" y="163.0" width="14.5" height="14.5" class="gcell-off"/><rect x="565.0" y="163.0" width="14.5" height="14.5" class="gcell-off"/><rect x="580.5" y="163.0" width="14.5" height="14.5" class="gcell-off"/><rect x="472.0" y="178.5" width="14.5" height="14.5" class="gcell-hit"/><rect x="487.5" y="178.5" width="14.5" height="14.5" class="gcell-vis"/><rect x="503.0" y="178.5" width="14.5" height="14.5" class="gcell-vis"/><rect x="518.5" y="178.5" width="14.5" height="14.5" class="gcell-vis"/><rect x="534.0" y="178.5" width="14.5" height="14.5" class="gcell-off"/><rect x="549.5" y="178.5" width="14.5" height="14.5" class="gcell-off"/><rect x="565.0" y="178.5" width="14.5" height="14.5" class="gcell-off"/><rect x="580.5" y="178.5" width="14.5" height="14.5" class="gcell-off"/><rect x="472.0" y="194.0" width="14.5" height="14.5" class="gcell-hit"/><rect x="487.5" y="194.0" width="14.5" height="14.5" class="gcell-vis"/><rect x="503.0" y="194.0" width="14.5" height="14.5" class="gcell-vis"/><rect x="518.5" y="194.0" width="14.5" height="14.5" class="gcell-vis"/><rect x="534.0" y="194.0" width="14.5" height="14.5" class="gcell-hit"/><rect x="549.5" y="194.0" width="14.5" height="14.5" class="gcell-off"/><rect x="565.0" y="194.0" width="14.5" height="14.5" class="gcell-off"/><rect x="580.5" y="194.0" width="14.5" height="14.5" class="gcell-off"/><rect x="472.0" y="209.5" width="14.5" height="14.5" class="gcell-hit"/><rect x="487.5" y="209.5" width="14.5" height="14.5" class="gcell-vis"/><rect x="503.0" y="209.5" width="14.5" height="14.5" class="gcell-vis"/><rect x="518.5" y="209.5" width="14.5" height="14.5" class="gcell-vis"/><rect x="534.0" y="209.5" width="14.5" height="14.5" class="gcell-hit"/><rect x="549.5" y="209.5" width="14.5" height="14.5" class="gcell-vis"/><rect x="565.0" y="209.5" width="14.5" height="14.5" class="gcell-off"/><rect x="580.5" y="209.5" width="14.5" height="14.5" class="gcell-off"/><rect x="472.0" y="225.0" width="14.5" height="14.5" class="gcell-hit"/><rect x="487.5" y="225.0" width="14.5" height="14.5" class="gcell-vis"/><rect x="503.0" y="225.0" width="14.5" height="14.5" class="gcell-vis"/><rect x="518.5" y="225.0" width="14.5" height="14.5" class="gcell-vis"/><rect x="534.0" y="225.0" width="14.5" height="14.5" class="gcell-hit"/><rect x="549.5" y="225.0" width="14.5" height="14.5" class="gcell-vis"/><rect x="565.0" y="225.0" width="14.5" height="14.5" class="gcell-vis"/><rect x="580.5" y="225.0" width="14.5" height="14.5" class="gcell-off"/><rect x="472.0" y="240.5" width="14.5" height="14.5" class="gcell-hit"/><rect x="487.5" y="240.5" width="14.5" height="14.5" class="gcell-vis"/><rect x="503.0" y="240.5" width="14.5" height="14.5" class="gcell-vis"/><rect x="518.5" y="240.5" width="14.5" height="14.5" class="gcell-vis"/><rect x="534.0" y="240.5" width="14.5" height="14.5" class="gcell-hit"/><rect x="549.5" y="240.5" width="14.5" height="14.5" class="gcell-vis"/><rect x="565.0" y="240.5" width="14.5" height="14.5" class="gcell-vis"/><rect x="580.5" y="240.5" width="14.5" height="14.5" class="gcell-vis"/><text x="479.25" y="267.0" text-anchor="middle" class="pnum">0</text><text x="494.75" y="267.0" text-anchor="middle" class="pnum">1</text><text x="510.25" y="267.0" text-anchor="middle" class="pnum">2</text><text x="525.75" y="267.0" text-anchor="middle" class="pnum">3</text><text x="541.25" y="267.0" text-anchor="middle" class="pnum">4</text><text x="556.75" y="267.0" text-anchor="middle" class="pnum">5</text><text x="572.25" y="267.0" text-anchor="middle" class="pnum">6</text><text x="587.75" y="267.0" text-anchor="middle" class="pnum">7</text><text x="472" y="282.0" class="pcap">shaded = attended (phase 0)</text><text x="630.0" y="146" class="plblb">Select</text><text x="630.0" y="162" class="pmath">Q = W<tspan font-size="70%" baseline-shift="-20%">Q</tspan> x  →  every query = e<tspan font-size="70%" baseline-shift="-20%">24</tspan></text><text x="630.0" y="176" class="pmath">K = W<tspan font-size="70%" baseline-shift="-20%">K</tspan> x  →  K[k] = e<tspan font-size="70%" baseline-shift="-20%">24 + phase(k)</tspan></text><text x="630.0" y="194" class="pmathf">⟨Q, K⟩ · 20  =  20 · 1[ phase(k) = 0 ]</text><text x="630.0" y="224" class="plblb">Aggregate</text><text x="630.0" y="240" class="pmath">V = W<tspan font-size="70%" baseline-shift="-20%">V</tspan> x   →   root copied to tonic</text><text x="630.0" y="258" class="pmathf">r = x + softmax(·) V W<tspan font-size="70%" baseline-shift="-20%">O</tspan></text><text x="630.0" y="276" class="pcap">retrieves the key; does not apply</text><text x="630.0" y="288" class="pcap">the rule</text><line x1="666.0" y1="296" x2="666.0" y2="332" class="parw" marker-end="url(#ar-ink)"/><text x="454" y="330" class="pcap">output stream  r</text><rect x="454" y="336" width="181.71428571428572" height="26" rx="2" class="pacc"/><rect x="635.7142857142858" y="336" width="181.71428571428572" height="26" rx="2" class="pacc"/><rect x="817.4285714285716" y="336" width="60.571428571428555" height="26" rx="2" class="pfroz"/><text x="544.8571428571429" y="353" text-anchor="middle" class="plbl">root  (12)</text><text x="726.5714285714287" y="353" text-anchor="middle" class="plbl">tonic ← key</text><text x="847.7142857142858" y="353" text-anchor="middle" class="pcap">phase (4)</text><text x="932" y="26" class="ppanel">(c)</text><text x="962" y="26" class="phead">Rule–music cross-attention</text><rect x="944" y="60" width="190" height="32" rx="2" class="pfroz"/><text x="1039.0" y="74.0" text-anchor="middle" class="plbl">music  h</text><text x="1039.0" y="88.0" text-anchor="middle" class="pmath">ℝ<tspan font-size="68%" baseline-shift="32%">T×768</tspan></text><rect x="1178" y="60" width="190" height="32" rx="2" class="pacc"/><text x="1273.0" y="74.0" text-anchor="middle" class="plbl">rule  r</text><text x="1273.0" y="88.0" text-anchor="middle" class="pmath">ℝ<tspan font-size="68%" baseline-shift="32%">T×28</tspan></text><line x1="1039" y1="92" x2="1039" y2="112" class="parw" marker-end="url(#ar-ink)"/><rect x="964" y="112" width="150" height="28" rx="2" class="pbx"/><text x="1039.0" y="130.0" text-anchor="middle" class="plbl">q_proj  /  PE × 20</text><line x1="1273" y1="92" x2="1228" y2="112" class="parwa" marker-end="url(#ar-flow)"/><line x1="1273" y1="92" x2="1318" y2="112" class="parwa" marker-end="url(#ar-flow)"/><rect x="1156" y="112" width="100" height="28" rx="2" class="pacc"/><text x="1206.0" y="130.0" text-anchor="middle" class="plbl">k_proj</text><rect x="1268" y="112" width="100" height="28" rx="2" class="pacc"/><text x="1318.0" y="130.0" text-anchor="middle" class="plbl">v_proj</text><text x="1044" y="158" class="pmath">Q</text><text x="1200" y="158" class="pmathf">K</text><text x="1312" y="158" class="pmathf">V</text><line x1="1039" y1="140" x2="1039" y2="168" class="parw" marker-end="url(#ar-ink)"/><line x1="1206" y1="140" x2="1206" y2="168" class="parwa" marker-end="url(#ar-flow)"/><line x1="1318" y1="140" x2="1318" y2="168" class="parwa" marker-end="url(#ar-flow)"/><rect x="944" y="168" width="424" height="92" rx="3" class="pdash"/><text x="1156" y="192" text-anchor="middle" class="pmathf">A = softmax( Q Kᵀ / √d<tspan font-size="70%" baseline-shift="-20%">h</tspan> )</text><text x="1156" y="214" text-anchor="middle" class="pmathf">Δ = ( A V ) W<tspan font-size="70%" baseline-shift="-20%">O</tspan></text><text x="1156" y="238" text-anchor="middle" class="pcap">8 heads · d<tspan font-size="70%" baseline-shift="-20%">h</tspan> = 32 · causal</text><text x="1156" y="252" text-anchor="middle" class="pcap">T queries attend to the T rule positions</text><line x1="1156" y1="260" x2="1156" y2="284" class="parw" marker-end="url(#ar-ink)"/><rect x="1024" y="284" width="264" height="32" rx="2" class="pacc"/><text x="1156.0" y="304.0" text-anchor="middle" class="plbl">h  ←  h  +  g · Δ</text><text x="1156" y="334" text-anchor="middle" class="pcap">g : learned scalar gate, one per layer (init 1.0)</text><text x="1156" y="350" text-anchor="middle" class="pcap">only shaded blocks are trained</text></svg>